<svg width="756" height="756" viewBox="0 0 756 756" fill="none" xmlns="http://www.w3.org/2000/svg">
<path d="M375.48 299.25H438.48V204.75H532.98V141.75H438.48V47.25H375.48V141.75H280.98V204.75H375.48V299.25ZM249.48 582.75C214.83 582.75 186.795 611.1 186.795 645.75C186.795 680.4 214.83 708.75 249.48 708.75C284.13 708.75 312.48 680.4 312.48 645.75C312.48 611.1 284.13 582.75 249.48 582.75ZM564.48 582.75C529.83 582.75 501.795 611.1 501.795 645.75C501.795 680.4 529.83 708.75 564.48 708.75C599.13 708.75 627.48 680.4 627.48 645.75C627.48 611.1 599.13 582.75 564.48 582.75ZM284.13 425.25H518.805C542.43 425.25 563.22 412.335 573.93 392.805L695.52 171.99L640.71 141.75L518.805 362.25H297.675L163.485 78.75H60.48V141.75H123.48L236.88 380.835L194.355 457.695C171.36 499.905 201.6 551.25 249.48 551.25H627.48V488.25H249.48L284.13 425.25Z" fill="black"/>
</svg>
