<svg width="1574" height="1574" viewBox="0 0 1574 1574" fill="none" xmlns="http://www.w3.org/2000/svg">
<path d="M787 131.167C424.324 131.167 131.167 424.324 131.167 787C131.167 1149.68 424.324 1442.83 787 1442.83C1149.68 1442.83 1442.83 1149.68 1442.83 787C1442.83 424.324 1149.68 131.167 787 131.167ZM787 1311.67C497.778 1311.67 262.333 1076.22 262.333 787C262.333 497.778 497.778 262.333 787 262.333C1076.22 262.333 1311.67 497.778 1311.67 787C1311.67 1076.22 1076.22 1311.67 787 1311.67ZM1022.44 459.083L787 694.528L551.556 459.083L459.083 551.556L694.528 787L459.083 1022.44L551.556 1114.92L787 879.473L1022.44 1114.92L1114.92 1022.44L879.473 787L1114.92 551.556L1022.44 459.083Z" fill="black"/>
</svg>
