<svg width="1419" height="1419" viewBox="0 0 1419 1419" fill="none" xmlns="http://www.w3.org/2000/svg">
<path d="M975.562 167.028C872.685 167.028 773.946 214.919 709.5 290.599C645.054 214.919 546.315 167.028 443.438 167.028C261.333 167.028 118.25 310.111 118.25 492.216C118.25 715.708 319.275 897.813 623.769 1174.52L709.5 1251.97L795.231 1173.93C1099.72 897.813 1300.75 715.708 1300.75 492.216C1300.75 310.111 1157.67 167.028 975.562 167.028ZM715.413 1086.42L709.5 1092.33L703.587 1086.42C422.152 831.593 236.5 663.087 236.5 492.216C236.5 373.966 325.188 285.278 443.438 285.278C534.49 285.278 623.177 343.812 654.514 424.813H765.077C795.822 343.812 884.51 285.278 975.562 285.278C1093.81 285.278 1182.5 373.966 1182.5 492.216C1182.5 663.087 996.848 831.593 715.413 1086.42Z" fill="black"/>
</svg>
