<svg width="2417" height="2417" viewBox="0 0 2417 2417" fill="none" xmlns="http://www.w3.org/2000/svg">
<path d="M1259.86 1006.08C1259.86 839.908 1123.91 703.951 957.736 703.951C791.568 703.951 655.611 839.908 655.611 1006.08C655.611 1172.25 791.568 1308.2 957.736 1308.2C1123.91 1308.2 1259.86 1172.25 1259.86 1006.08ZM957.736 1106.78C902.347 1106.78 857.028 1061.47 857.028 1006.08C857.028 950.687 902.347 905.368 957.736 905.368C1013.13 905.368 1058.44 950.687 1058.44 1006.08C1058.44 1061.47 1013.13 1106.78 957.736 1106.78ZM1612.34 1308.2C1724.13 1308.2 1813.76 1218.57 1813.76 1106.78C1813.76 994.998 1724.13 905.368 1612.34 905.368C1500.55 905.368 1409.92 994.998 1410.92 1106.78C1410.92 1218.57 1500.55 1308.2 1612.34 1308.2ZM1208.5 201.417C652.59 201.417 201.417 652.59 201.417 1208.5C201.417 1764.41 652.59 2215.58 1208.5 2215.58C1764.41 2215.58 2215.58 1764.41 2215.58 1208.5C2215.58 652.59 1764.41 201.417 1208.5 201.417ZM589.144 1723.12C657.625 1668.74 817.752 1611.33 957.736 1611.33C964.786 1611.33 972.843 1612.34 980.899 1612.34C1005.07 1547.89 1048.37 1482.43 1111.82 1425.02C1055.42 1414.95 1002.05 1408.91 957.736 1408.91C826.815 1408.91 616.335 1454.23 481.386 1552.92C431.032 1448.19 402.833 1331.36 402.833 1207.49C402.833 763.369 764.376 401.826 1208.5 401.826C1652.62 401.826 2014.17 763.369 2014.17 1207.49C2014.17 1328.34 1986.98 1443.15 1938.64 1546.88C1837.93 1487.46 1700.96 1459.26 1612.34 1459.26C1459.26 1459.26 1159.15 1540.84 1159.15 1731.18V2011.15C930.545 1998.05 727.114 1889.29 589.144 1723.12Z" fill="black"/>
</svg>
